<svg id="Layer_1" data-name="Layer 1" xmlns="http://www.w3.org/2000/svg" viewBox="0 0 1024 980.95"><defs><style>.cls-1{fill:none;stroke:#69c;stroke-miterlimit:10;stroke-width:4px;}.cls-2{fill:#69c;}</style></defs><title>Untitled-2</title><line class="cls-1" x1="24.07" y1="917.98" x2="939.99" y2="251.55"/><path class="cls-2" d="M1043.81,50.05l10.58,7.66q-15.87,13.84-20.78,25.61t-4.91,36.22q0,100.11,57.44,240.26,32.12,77.73,50.26,77.73,8.7,0,28-15.61l9.45,7.07-4.54,3.83q-32.5,27.09-59.33,52.41l-7.56,7.36q-48-77.44-80.31-168.71T989.76,175.19q0-24.13,4.54-55.35l1.14-8q-30.25,24.45-92.59,85.39-38.93,38-70.29,65.66l-8.69,7.66q20.78-1.17,46.48-1.18l110,1.47,15.5.59q-13.61,29.45-26.46,73H955q5.29-15.9,5.29-24.73,0-11.19-9.83-14.72T910,301.5H855.23l-61.6.88-7.56.3-9.82,7.66q-81.63,61.83-110,80.67t-83.9,47.41L571.79,444q26.83-1.77,57.82-1.77,71.42,0,109.22,3.53L809.88,452q28.34,2.65,51,2.65,58.58,0,93.54-23.56t43.27-68.9q14,6.48,14,16.78,0,25.33-43.46,58-67.66,50.64-147,50.65-26.46,0-72.56-3.83-112.24-9.12-176.11-9.13l-79.36,1.47H486l23.81-29.74a606.69,606.69,0,0,0,184.8-88q85-59.77,240-210.23Q1009,76,1043.81,50.05Z" transform="translate(-486 -50.05)"/><path class="cls-2" d="M1282.73,814.29l-13.91,29.15q44.15,30.91,99.79,78l29.55,25q35.12,29.44,45.37,36.66t17.56,7.21q13.21,0,38.25-16.19l8.69,8.54q-40.34,28.56-72.66,48.29l-12.17-10.6q-115.09-99.52-174.54-144.28a320.72,320.72,0,0,1-102.91,97.46q-94.92,57.13-185,57.12-79.62,0-129.51-40.19T781.36,886.43q0-57.41,39.29-109.68t111.61-90.83q67.1-35.62,163.58-55.8T1295.94,610q103.26,0,158.55,21.64c20.07,7.85,52.18,30,55.28,62,4.3,44.3-51.65,87.81-74.77,99.19a224.26,224.26,0,0,1-30.73,11.85,195.13,195.13,0,0,1-29.19,6.24q-25.54,1.33-51.67,2.26Q1302.89,813.84,1282.73,814.29Zm-53.2-112.48q57.72-10,102.57-22.38l-1.74,5.3q-15.64,55.06-32.33,95.69,19.81.88,28.16.89,62.93,0,98.91-22.08t36-61q0-72.72-194.71-72.72-217.3,0-337.26,82.44Q825.51,779.55,825.51,874.06q0,59.47,46.24,96.72T992.05,1008q39.29,0,81.53-13.54t72.49-35.92q42.77-31.52,80-100.11-58.76-44.75-110.57-44.75-46.24,0-76.14,25.32t-29.9,64.77q0,9.71,3.48,23.85-26.77-12.37-26.77-35,0-33,55.46-70.22t104.13-37.25q36.51,0,70.93,21.79l21.9,14.13,5.22,2.95a399.35,399.35,0,0,0,22.95-54.47q10.78-31.2,10.78-43,0-16.79-23.29-16.78-7.3,0-21.55,2.35Z" transform="translate(-486 -50.05)"/></svg>